<?xml version="1.0" encoding="UTF-8" ?>
<!DOCTYPE svg PUBLIC "-//W3C//DTD SVG 1.1//EN" "http://www.w3.org/Graphics/SVG/1.1/DTD/svg11.dtd">
<svg width="133pt" height="107pt" viewBox="0 0 133 107" version="1.1" xmlns="http://www.w3.org/2000/svg">
<!--<path id="background" fill="#ffffff" d=" M 0.00 0.00 L 133.00 0.00 L 133.00 107.00 L 0.00 107.00 L 0.00 0.00 Z" />-->
<path id="n" fill="#000000" d=" M 39.40 5.65 C 49.51 4.02 59.80 5.03 70.00 4.75 C 82.22 4.73 95.52 3.96 106.33 10.70 C 112.59 14.46 116.01 21.76 116.00 28.93 C 115.95 50.26 116.10 71.59 115.93 92.91 C 115.72 99.25 107.49 100.42 102.98 97.88 C 100.31 96.32 99.99 92.88 99.99 90.10 C 100.01 70.03 99.99 49.97 100.01 29.90 C 100.19 26.78 98.66 23.65 96.06 21.91 C 92.55 19.58 88.20 19.02 84.07 18.99 C 71.69 19.02 59.30 18.99 46.92 19.00 C 42.21 19.17 36.89 19.88 33.54 23.56 C 31.85 25.22 31.23 27.67 31.25 29.98 C 31.26 50.00 31.24 70.02 31.26 90.05 C 31.29 92.93 30.92 96.42 28.17 98.05 C 23.73 100.38 15.88 99.09 15.60 93.01 C 15.34 72.35 15.59 51.67 15.48 31.01 C 15.30 24.98 16.83 18.59 21.16 14.17 C 25.83 9.03 32.74 6.78 39.40 5.65 Z" />
</svg>
